<svg xmlns="http://www.w3.org/2000/svg" width="1200" height="504" viewBox="0 0 1200 504" fill="none">
<defs>
  <clipPath id="card"><rect x="0.5" y="0.5" width="1199" height="503" rx="20"/></clipPath>
  <clipPath id="bar"><rect x="56" y="420" width="1088" height="8" rx="4"/></clipPath>
</defs>
<g clip-path="url(#card)">
  <rect width="1200" height="504" fill="#0b0b10"/>
  <text x="56" y="64" text-anchor="start" font-family="'Segoe UI', -apple-system, BlinkMacSystemFont, 'Helvetica Neue', Arial, sans-serif" font-size="15" font-weight="600" letter-spacing="0.9" fill="#a1a1aa">ACTIVITY</text>
  <text x="1144" y="64" text-anchor="end" font-family="'Segoe UI', -apple-system, BlinkMacSystemFont, 'Helvetica Neue', Arial, sans-serif" font-size="15" font-weight="600" letter-spacing="0.9" fill="#a1a1aa">LAST 12 MONTHS</text>
  <rect x="56" y="80" width="1088" height="1" fill="#1f1f29"/>
  <text x="56" y="150" font-family="'Segoe UI', -apple-system, BlinkMacSystemFont, 'Helvetica Neue', Arial, sans-serif" font-size="36" font-weight="600" letter-spacing="-0.5" fill="#f4f4f5">1,817</text>
  <text x="56" y="178" font-family="'Segoe UI', -apple-system, BlinkMacSystemFont, 'Helvetica Neue', Arial, sans-serif" font-size="14" font-weight="600" letter-spacing="0.9" fill="#a1a1aa">CONTRIBUTIONS</text>
  <text x="328" y="150" font-family="'Segoe UI', -apple-system, BlinkMacSystemFont, 'Helvetica Neue', Arial, sans-serif" font-size="36" font-weight="600" letter-spacing="-0.5" fill="#f4f4f5">10 days</text>
  <text x="328" y="178" font-family="'Segoe UI', -apple-system, BlinkMacSystemFont, 'Helvetica Neue', Arial, sans-serif" font-size="14" font-weight="600" letter-spacing="0.9" fill="#a1a1aa">LONGEST STREAK</text>
  <text x="600" y="150" font-family="'Segoe UI', -apple-system, BlinkMacSystemFont, 'Helvetica Neue', Arial, sans-serif" font-size="36" font-weight="600" letter-spacing="-0.5" fill="#f4f4f5">50</text>
  <text x="600" y="178" font-family="'Segoe UI', -apple-system, BlinkMacSystemFont, 'Helvetica Neue', Arial, sans-serif" font-size="14" font-weight="600" letter-spacing="0.9" fill="#a1a1aa">PULL REQUESTS</text>
  <text x="872" y="150" font-family="'Segoe UI', -apple-system, BlinkMacSystemFont, 'Helvetica Neue', Arial, sans-serif" font-size="36" font-weight="600" letter-spacing="-0.5" fill="#f4f4f5">113</text>
  <text x="872" y="178" font-family="'Segoe UI', -apple-system, BlinkMacSystemFont, 'Helvetica Neue', Arial, sans-serif" font-size="14" font-weight="600" letter-spacing="0.9" fill="#a1a1aa">ACTIVE DAYS</text>
  <rect x="56.0" y="216.0" width="16.5" height="16.5" rx="4" fill="#16161f"/><rect x="56.0" y="236.5" width="16.5" height="16.5" rx="4" fill="#16161f"/><rect x="56.0" y="257.1" width="16.5" height="16.5" rx="4" fill="#16161f"/><rect x="56.0" y="277.6" width="16.5" height="16.5" rx="4" fill="#16161f"/><rect x="56.0" y="298.1" width="16.5" height="16.5" rx="4" fill="#16161f"/><rect x="56.0" y="318.6" width="16.5" height="16.5" rx="4" fill="#3b1a66"/><rect x="56.0" y="339.2" width="16.5" height="16.5" rx="4" fill="#3b1a66"/>
  <rect x="76.5" y="216.0" width="16.5" height="16.5" rx="4" fill="#3b1a66"/><rect x="76.5" y="236.5" width="16.5" height="16.5" rx="4" fill="#3b1a66"/><rect x="76.5" y="257.1" width="16.5" height="16.5" rx="4" fill="#3b1a66"/><rect x="76.5" y="277.6" width="16.5" height="16.5" rx="4" fill="#3b1a66"/><rect x="76.5" y="298.1" width="16.5" height="16.5" rx="4" fill="#3b1a66"/><rect x="76.5" y="318.6" width="16.5" height="16.5" rx="4" fill="#3b1a66"/><rect x="76.5" y="339.2" width="16.5" height="16.5" rx="4" fill="#3b1a66"/>
  <rect x="97.1" y="216.0" width="16.5" height="16.5" rx="4" fill="#16161f"/><rect x="97.1" y="236.5" width="16.5" height="16.5" rx="4" fill="#3b1a66"/><rect x="97.1" y="257.1" width="16.5" height="16.5" rx="4" fill="#3b1a66"/><rect x="97.1" y="277.6" width="16.5" height="16.5" rx="4" fill="#3b1a66"/><rect x="97.1" y="298.1" width="16.5" height="16.5" rx="4" fill="#16161f"/><rect x="97.1" y="318.6" width="16.5" height="16.5" rx="4" fill="#16161f"/><rect x="97.1" y="339.2" width="16.5" height="16.5" rx="4" fill="#3b1a66"/>
  <rect x="117.6" y="216.0" width="16.5" height="16.5" rx="4" fill="#16161f"/><rect x="117.6" y="236.5" width="16.5" height="16.5" rx="4" fill="#16161f"/><rect x="117.6" y="257.1" width="16.5" height="16.5" rx="4" fill="#16161f"/><rect x="117.6" y="277.6" width="16.5" height="16.5" rx="4" fill="#16161f"/><rect x="117.6" y="298.1" width="16.5" height="16.5" rx="4" fill="#3b1a66"/><rect x="117.6" y="318.6" width="16.5" height="16.5" rx="4" fill="#3b1a66"/><rect x="117.6" y="339.2" width="16.5" height="16.5" rx="4" fill="#3b1a66"/>
  <rect x="138.1" y="216.0" width="16.5" height="16.5" rx="4" fill="#3b1a66"/><rect x="138.1" y="236.5" width="16.5" height="16.5" rx="4" fill="#16161f"/><rect x="138.1" y="257.1" width="16.5" height="16.5" rx="4" fill="#3b1a66"/><rect x="138.1" y="277.6" width="16.5" height="16.5" rx="4" fill="#16161f"/><rect x="138.1" y="298.1" width="16.5" height="16.5" rx="4" fill="#3b1a66"/><rect x="138.1" y="318.6" width="16.5" height="16.5" rx="4" fill="#16161f"/><rect x="138.1" y="339.2" width="16.5" height="16.5" rx="4" fill="#16161f"/>
  <rect x="158.6" y="216.0" width="16.5" height="16.5" rx="4" fill="#16161f"/><rect x="158.6" y="236.5" width="16.5" height="16.5" rx="4" fill="#16161f"/><rect x="158.6" y="257.1" width="16.5" height="16.5" rx="4" fill="#16161f"/><rect x="158.6" y="277.6" width="16.5" height="16.5" rx="4" fill="#16161f"/><rect x="158.6" y="298.1" width="16.5" height="16.5" rx="4" fill="#3b1a66"/><rect x="158.6" y="318.6" width="16.5" height="16.5" rx="4" fill="#16161f"/><rect x="158.6" y="339.2" width="16.5" height="16.5" rx="4" fill="#3b1a66"/>
  <rect x="179.2" y="216.0" width="16.5" height="16.5" rx="4" fill="#16161f"/><rect x="179.2" y="236.5" width="16.5" height="16.5" rx="4" fill="#16161f"/><rect x="179.2" y="257.1" width="16.5" height="16.5" rx="4" fill="#16161f"/><rect x="179.2" y="277.6" width="16.5" height="16.5" rx="4" fill="#16161f"/><rect x="179.2" y="298.1" width="16.5" height="16.5" rx="4" fill="#16161f"/><rect x="179.2" y="318.6" width="16.5" height="16.5" rx="4" fill="#16161f"/><rect x="179.2" y="339.2" width="16.5" height="16.5" rx="4" fill="#16161f"/>
  <rect x="199.7" y="216.0" width="16.5" height="16.5" rx="4" fill="#16161f"/><rect x="199.7" y="236.5" width="16.5" height="16.5" rx="4" fill="#16161f"/><rect x="199.7" y="257.1" width="16.5" height="16.5" rx="4" fill="#16161f"/><rect x="199.7" y="277.6" width="16.5" height="16.5" rx="4" fill="#16161f"/><rect x="199.7" y="298.1" width="16.5" height="16.5" rx="4" fill="#16161f"/><rect x="199.7" y="318.6" width="16.5" height="16.5" rx="4" fill="#3b1a66"/><rect x="199.7" y="339.2" width="16.5" height="16.5" rx="4" fill="#9333ea"/>
  <rect x="220.2" y="216.0" width="16.5" height="16.5" rx="4" fill="#3b1a66"/><rect x="220.2" y="236.5" width="16.5" height="16.5" rx="4" fill="#16161f"/><rect x="220.2" y="257.1" width="16.5" height="16.5" rx="4" fill="#16161f"/><rect x="220.2" y="277.6" width="16.5" height="16.5" rx="4" fill="#16161f"/><rect x="220.2" y="298.1" width="16.5" height="16.5" rx="4" fill="#16161f"/><rect x="220.2" y="318.6" width="16.5" height="16.5" rx="4" fill="#16161f"/><rect x="220.2" y="339.2" width="16.5" height="16.5" rx="4" fill="#16161f"/>
  <rect x="240.8" y="216.0" width="16.5" height="16.5" rx="4" fill="#16161f"/><rect x="240.8" y="236.5" width="16.5" height="16.5" rx="4" fill="#16161f"/><rect x="240.8" y="257.1" width="16.5" height="16.5" rx="4" fill="#16161f"/><rect x="240.8" y="277.6" width="16.5" height="16.5" rx="4" fill="#16161f"/><rect x="240.8" y="298.1" width="16.5" height="16.5" rx="4" fill="#3b1a66"/><rect x="240.8" y="318.6" width="16.5" height="16.5" rx="4" fill="#16161f"/><rect x="240.8" y="339.2" width="16.5" height="16.5" rx="4" fill="#3b1a66"/>
  <rect x="261.3" y="216.0" width="16.5" height="16.5" rx="4" fill="#3b1a66"/><rect x="261.3" y="236.5" width="16.5" height="16.5" rx="4" fill="#3b1a66"/><rect x="261.3" y="257.1" width="16.5" height="16.5" rx="4" fill="#3b1a66"/><rect x="261.3" y="277.6" width="16.5" height="16.5" rx="4" fill="#3b1a66"/><rect x="261.3" y="298.1" width="16.5" height="16.5" rx="4" fill="#16161f"/><rect x="261.3" y="318.6" width="16.5" height="16.5" rx="4" fill="#16161f"/><rect x="261.3" y="339.2" width="16.5" height="16.5" rx="4" fill="#16161f"/>
  <rect x="281.8" y="216.0" width="16.5" height="16.5" rx="4" fill="#16161f"/><rect x="281.8" y="236.5" width="16.5" height="16.5" rx="4" fill="#3b1a66"/><rect x="281.8" y="257.1" width="16.5" height="16.5" rx="4" fill="#3b1a66"/><rect x="281.8" y="277.6" width="16.5" height="16.5" rx="4" fill="#3b1a66"/><rect x="281.8" y="298.1" width="16.5" height="16.5" rx="4" fill="#16161f"/><rect x="281.8" y="318.6" width="16.5" height="16.5" rx="4" fill="#16161f"/><rect x="281.8" y="339.2" width="16.5" height="16.5" rx="4" fill="#16161f"/>
  <rect x="302.3" y="216.0" width="16.5" height="16.5" rx="4" fill="#16161f"/><rect x="302.3" y="236.5" width="16.5" height="16.5" rx="4" fill="#16161f"/><rect x="302.3" y="257.1" width="16.5" height="16.5" rx="4" fill="#3b1a66"/><rect x="302.3" y="277.6" width="16.5" height="16.5" rx="4" fill="#3b1a66"/><rect x="302.3" y="298.1" width="16.5" height="16.5" rx="4" fill="#3b1a66"/><rect x="302.3" y="318.6" width="16.5" height="16.5" rx="4" fill="#3b1a66"/><rect x="302.3" y="339.2" width="16.5" height="16.5" rx="4" fill="#16161f"/>
  <rect x="322.9" y="216.0" width="16.5" height="16.5" rx="4" fill="#16161f"/><rect x="322.9" y="236.5" width="16.5" height="16.5" rx="4" fill="#3b1a66"/><rect x="322.9" y="257.1" width="16.5" height="16.5" rx="4" fill="#3b1a66"/><rect x="322.9" y="277.6" width="16.5" height="16.5" rx="4" fill="#3b1a66"/><rect x="322.9" y="298.1" width="16.5" height="16.5" rx="4" fill="#3b1a66"/><rect x="322.9" y="318.6" width="16.5" height="16.5" rx="4" fill="#16161f"/><rect x="322.9" y="339.2" width="16.5" height="16.5" rx="4" fill="#16161f"/>
  <rect x="343.4" y="216.0" width="16.5" height="16.5" rx="4" fill="#3b1a66"/><rect x="343.4" y="236.5" width="16.5" height="16.5" rx="4" fill="#16161f"/><rect x="343.4" y="257.1" width="16.5" height="16.5" rx="4" fill="#16161f"/><rect x="343.4" y="277.6" width="16.5" height="16.5" rx="4" fill="#16161f"/><rect x="343.4" y="298.1" width="16.5" height="16.5" rx="4" fill="#16161f"/><rect x="343.4" y="318.6" width="16.5" height="16.5" rx="4" fill="#16161f"/><rect x="343.4" y="339.2" width="16.5" height="16.5" rx="4" fill="#16161f"/>
  <rect x="363.9" y="216.0" width="16.5" height="16.5" rx="4" fill="#16161f"/><rect x="363.9" y="236.5" width="16.5" height="16.5" rx="4" fill="#16161f"/><rect x="363.9" y="257.1" width="16.5" height="16.5" rx="4" fill="#16161f"/><rect x="363.9" y="277.6" width="16.5" height="16.5" rx="4" fill="#16161f"/><rect x="363.9" y="298.1" width="16.5" height="16.5" rx="4" fill="#16161f"/><rect x="363.9" y="318.6" width="16.5" height="16.5" rx="4" fill="#3b1a66"/><rect x="363.9" y="339.2" width="16.5" height="16.5" rx="4" fill="#3b1a66"/>
  <rect x="384.5" y="216.0" width="16.5" height="16.5" rx="4" fill="#3b1a66"/><rect x="384.5" y="236.5" width="16.5" height="16.5" rx="4" fill="#3b1a66"/><rect x="384.5" y="257.1" width="16.5" height="16.5" rx="4" fill="#3b1a66"/><rect x="384.5" y="277.6" width="16.5" height="16.5" rx="4" fill="#16161f"/><rect x="384.5" y="298.1" width="16.5" height="16.5" rx="4" fill="#16161f"/><rect x="384.5" y="318.6" width="16.5" height="16.5" rx="4" fill="#3b1a66"/><rect x="384.5" y="339.2" width="16.5" height="16.5" rx="4" fill="#3b1a66"/>
  <rect x="405.0" y="216.0" width="16.5" height="16.5" rx="4" fill="#3b1a66"/><rect x="405.0" y="236.5" width="16.5" height="16.5" rx="4" fill="#16161f"/><rect x="405.0" y="257.1" width="16.5" height="16.5" rx="4" fill="#3b1a66"/><rect x="405.0" y="277.6" width="16.5" height="16.5" rx="4" fill="#3b1a66"/><rect x="405.0" y="298.1" width="16.5" height="16.5" rx="4" fill="#16161f"/><rect x="405.0" y="318.6" width="16.5" height="16.5" rx="4" fill="#16161f"/><rect x="405.0" y="339.2" width="16.5" height="16.5" rx="4" fill="#3b1a66"/>
  <rect x="425.5" y="216.0" width="16.5" height="16.5" rx="4" fill="#16161f"/><rect x="425.5" y="236.5" width="16.5" height="16.5" rx="4" fill="#3b1a66"/><rect x="425.5" y="257.1" width="16.5" height="16.5" rx="4" fill="#16161f"/><rect x="425.5" y="277.6" width="16.5" height="16.5" rx="4" fill="#16161f"/><rect x="425.5" y="298.1" width="16.5" height="16.5" rx="4" fill="#3b1a66"/><rect x="425.5" y="318.6" width="16.5" height="16.5" rx="4" fill="#3b1a66"/><rect x="425.5" y="339.2" width="16.5" height="16.5" rx="4" fill="#3b1a66"/>
  <rect x="446.0" y="216.0" width="16.5" height="16.5" rx="4" fill="#3b1a66"/><rect x="446.0" y="236.5" width="16.5" height="16.5" rx="4" fill="#16161f"/><rect x="446.0" y="257.1" width="16.5" height="16.5" rx="4" fill="#3b1a66"/><rect x="446.0" y="277.6" width="16.5" height="16.5" rx="4" fill="#3b1a66"/><rect x="446.0" y="298.1" width="16.5" height="16.5" rx="4" fill="#16161f"/><rect x="446.0" y="318.6" width="16.5" height="16.5" rx="4" fill="#16161f"/><rect x="446.0" y="339.2" width="16.5" height="16.5" rx="4" fill="#16161f"/>
  <rect x="466.6" y="216.0" width="16.5" height="16.5" rx="4" fill="#16161f"/><rect x="466.6" y="236.5" width="16.5" height="16.5" rx="4" fill="#16161f"/><rect x="466.6" y="257.1" width="16.5" height="16.5" rx="4" fill="#16161f"/><rect x="466.6" y="277.6" width="16.5" height="16.5" rx="4" fill="#16161f"/><rect x="466.6" y="298.1" width="16.5" height="16.5" rx="4" fill="#16161f"/><rect x="466.6" y="318.6" width="16.5" height="16.5" rx="4" fill="#16161f"/><rect x="466.6" y="339.2" width="16.5" height="16.5" rx="4" fill="#16161f"/>
  <rect x="487.1" y="216.0" width="16.5" height="16.5" rx="4" fill="#16161f"/><rect x="487.1" y="236.5" width="16.5" height="16.5" rx="4" fill="#16161f"/><rect x="487.1" y="257.1" width="16.5" height="16.5" rx="4" fill="#16161f"/><rect x="487.1" y="277.6" width="16.5" height="16.5" rx="4" fill="#16161f"/><rect x="487.1" y="298.1" width="16.5" height="16.5" rx="4" fill="#16161f"/><rect x="487.1" y="318.6" width="16.5" height="16.5" rx="4" fill="#16161f"/><rect x="487.1" y="339.2" width="16.5" height="16.5" rx="4" fill="#16161f"/>
  <rect x="507.6" y="216.0" width="16.5" height="16.5" rx="4" fill="#16161f"/><rect x="507.6" y="236.5" width="16.5" height="16.5" rx="4" fill="#16161f"/><rect x="507.6" y="257.1" width="16.5" height="16.5" rx="4" fill="#16161f"/><rect x="507.6" y="277.6" width="16.5" height="16.5" rx="4" fill="#16161f"/><rect x="507.6" y="298.1" width="16.5" height="16.5" rx="4" fill="#16161f"/><rect x="507.6" y="318.6" width="16.5" height="16.5" rx="4" fill="#16161f"/><rect x="507.6" y="339.2" width="16.5" height="16.5" rx="4" fill="#16161f"/>
  <rect x="528.2" y="216.0" width="16.5" height="16.5" rx="4" fill="#16161f"/><rect x="528.2" y="236.5" width="16.5" height="16.5" rx="4" fill="#16161f"/><rect x="528.2" y="257.1" width="16.5" height="16.5" rx="4" fill="#16161f"/><rect x="528.2" y="277.6" width="16.5" height="16.5" rx="4" fill="#16161f"/><rect x="528.2" y="298.1" width="16.5" height="16.5" rx="4" fill="#16161f"/><rect x="528.2" y="318.6" width="16.5" height="16.5" rx="4" fill="#16161f"/><rect x="528.2" y="339.2" width="16.5" height="16.5" rx="4" fill="#16161f"/>
  <rect x="548.7" y="216.0" width="16.5" height="16.5" rx="4" fill="#16161f"/><rect x="548.7" y="236.5" width="16.5" height="16.5" rx="4" fill="#16161f"/><rect x="548.7" y="257.1" width="16.5" height="16.5" rx="4" fill="#16161f"/><rect x="548.7" y="277.6" width="16.5" height="16.5" rx="4" fill="#16161f"/><rect x="548.7" y="298.1" width="16.5" height="16.5" rx="4" fill="#16161f"/><rect x="548.7" y="318.6" width="16.5" height="16.5" rx="4" fill="#16161f"/><rect x="548.7" y="339.2" width="16.5" height="16.5" rx="4" fill="#16161f"/>
  <rect x="569.2" y="216.0" width="16.5" height="16.5" rx="4" fill="#16161f"/><rect x="569.2" y="236.5" width="16.5" height="16.5" rx="4" fill="#16161f"/><rect x="569.2" y="257.1" width="16.5" height="16.5" rx="4" fill="#16161f"/><rect x="569.2" y="277.6" width="16.5" height="16.5" rx="4" fill="#16161f"/><rect x="569.2" y="298.1" width="16.5" height="16.5" rx="4" fill="#16161f"/><rect x="569.2" y="318.6" width="16.5" height="16.5" rx="4" fill="#16161f"/><rect x="569.2" y="339.2" width="16.5" height="16.5" rx="4" fill="#16161f"/>
  <rect x="589.7" y="216.0" width="16.5" height="16.5" rx="4" fill="#16161f"/><rect x="589.7" y="236.5" width="16.5" height="16.5" rx="4" fill="#16161f"/><rect x="589.7" y="257.1" width="16.5" height="16.5" rx="4" fill="#16161f"/><rect x="589.7" y="277.6" width="16.5" height="16.5" rx="4" fill="#16161f"/><rect x="589.7" y="298.1" width="16.5" height="16.5" rx="4" fill="#16161f"/><rect x="589.7" y="318.6" width="16.5" height="16.5" rx="4" fill="#16161f"/><rect x="589.7" y="339.2" width="16.5" height="16.5" rx="4" fill="#16161f"/>
  <rect x="610.3" y="216.0" width="16.5" height="16.5" rx="4" fill="#16161f"/><rect x="610.3" y="236.5" width="16.5" height="16.5" rx="4" fill="#16161f"/><rect x="610.3" y="257.1" width="16.5" height="16.5" rx="4" fill="#16161f"/><rect x="610.3" y="277.6" width="16.5" height="16.5" rx="4" fill="#16161f"/><rect x="610.3" y="298.1" width="16.5" height="16.5" rx="4" fill="#16161f"/><rect x="610.3" y="318.6" width="16.5" height="16.5" rx="4" fill="#16161f"/><rect x="610.3" y="339.2" width="16.5" height="16.5" rx="4" fill="#16161f"/>
  <rect x="630.8" y="216.0" width="16.5" height="16.5" rx="4" fill="#16161f"/><rect x="630.8" y="236.5" width="16.5" height="16.5" rx="4" fill="#16161f"/><rect x="630.8" y="257.1" width="16.5" height="16.5" rx="4" fill="#16161f"/><rect x="630.8" y="277.6" width="16.5" height="16.5" rx="4" fill="#16161f"/><rect x="630.8" y="298.1" width="16.5" height="16.5" rx="4" fill="#16161f"/><rect x="630.8" y="318.6" width="16.5" height="16.5" rx="4" fill="#16161f"/><rect x="630.8" y="339.2" width="16.5" height="16.5" rx="4" fill="#16161f"/>
  <rect x="651.3" y="216.0" width="16.5" height="16.5" rx="4" fill="#16161f"/><rect x="651.3" y="236.5" width="16.5" height="16.5" rx="4" fill="#16161f"/><rect x="651.3" y="257.1" width="16.5" height="16.5" rx="4" fill="#16161f"/><rect x="651.3" y="277.6" width="16.5" height="16.5" rx="4" fill="#16161f"/><rect x="651.3" y="298.1" width="16.5" height="16.5" rx="4" fill="#16161f"/><rect x="651.3" y="318.6" width="16.5" height="16.5" rx="4" fill="#16161f"/><rect x="651.3" y="339.2" width="16.5" height="16.5" rx="4" fill="#16161f"/>
  <rect x="671.8" y="216.0" width="16.5" height="16.5" rx="4" fill="#16161f"/><rect x="671.8" y="236.5" width="16.5" height="16.5" rx="4" fill="#16161f"/><rect x="671.8" y="257.1" width="16.5" height="16.5" rx="4" fill="#16161f"/><rect x="671.8" y="277.6" width="16.5" height="16.5" rx="4" fill="#16161f"/><rect x="671.8" y="298.1" width="16.5" height="16.5" rx="4" fill="#16161f"/><rect x="671.8" y="318.6" width="16.5" height="16.5" rx="4" fill="#16161f"/><rect x="671.8" y="339.2" width="16.5" height="16.5" rx="4" fill="#16161f"/>
  <rect x="692.4" y="216.0" width="16.5" height="16.5" rx="4" fill="#16161f"/><rect x="692.4" y="236.5" width="16.5" height="16.5" rx="4" fill="#16161f"/><rect x="692.4" y="257.1" width="16.5" height="16.5" rx="4" fill="#16161f"/><rect x="692.4" y="277.6" width="16.5" height="16.5" rx="4" fill="#16161f"/><rect x="692.4" y="298.1" width="16.5" height="16.5" rx="4" fill="#16161f"/><rect x="692.4" y="318.6" width="16.5" height="16.5" rx="4" fill="#16161f"/><rect x="692.4" y="339.2" width="16.5" height="16.5" rx="4" fill="#16161f"/>
  <rect x="712.9" y="216.0" width="16.5" height="16.5" rx="4" fill="#16161f"/><rect x="712.9" y="236.5" width="16.5" height="16.5" rx="4" fill="#16161f"/><rect x="712.9" y="257.1" width="16.5" height="16.5" rx="4" fill="#16161f"/><rect x="712.9" y="277.6" width="16.5" height="16.5" rx="4" fill="#16161f"/><rect x="712.9" y="298.1" width="16.5" height="16.5" rx="4" fill="#16161f"/><rect x="712.9" y="318.6" width="16.5" height="16.5" rx="4" fill="#16161f"/><rect x="712.9" y="339.2" width="16.5" height="16.5" rx="4" fill="#16161f"/>
  <rect x="733.4" y="216.0" width="16.5" height="16.5" rx="4" fill="#16161f"/><rect x="733.4" y="236.5" width="16.5" height="16.5" rx="4" fill="#16161f"/><rect x="733.4" y="257.1" width="16.5" height="16.5" rx="4" fill="#16161f"/><rect x="733.4" y="277.6" width="16.5" height="16.5" rx="4" fill="#16161f"/><rect x="733.4" y="298.1" width="16.5" height="16.5" rx="4" fill="#16161f"/><rect x="733.4" y="318.6" width="16.5" height="16.5" rx="4" fill="#16161f"/><rect x="733.4" y="339.2" width="16.5" height="16.5" rx="4" fill="#16161f"/>
  <rect x="754.0" y="216.0" width="16.5" height="16.5" rx="4" fill="#16161f"/><rect x="754.0" y="236.5" width="16.5" height="16.5" rx="4" fill="#16161f"/><rect x="754.0" y="257.1" width="16.5" height="16.5" rx="4" fill="#16161f"/><rect x="754.0" y="277.6" width="16.5" height="16.5" rx="4" fill="#16161f"/><rect x="754.0" y="298.1" width="16.5" height="16.5" rx="4" fill="#16161f"/><rect x="754.0" y="318.6" width="16.5" height="16.5" rx="4" fill="#16161f"/><rect x="754.0" y="339.2" width="16.5" height="16.5" rx="4" fill="#16161f"/>
  <rect x="774.5" y="216.0" width="16.5" height="16.5" rx="4" fill="#3b1a66"/><rect x="774.5" y="236.5" width="16.5" height="16.5" rx="4" fill="#3b1a66"/><rect x="774.5" y="257.1" width="16.5" height="16.5" rx="4" fill="#3b1a66"/><rect x="774.5" y="277.6" width="16.5" height="16.5" rx="4" fill="#3b1a66"/><rect x="774.5" y="298.1" width="16.5" height="16.5" rx="4" fill="#3b1a66"/><rect x="774.5" y="318.6" width="16.5" height="16.5" rx="4" fill="#3b1a66"/><rect x="774.5" y="339.2" width="16.5" height="16.5" rx="4" fill="#3b1a66"/>
  <rect x="795.0" y="216.0" width="16.5" height="16.5" rx="4" fill="#3b1a66"/><rect x="795.0" y="236.5" width="16.5" height="16.5" rx="4" fill="#3b1a66"/><rect x="795.0" y="257.1" width="16.5" height="16.5" rx="4" fill="#16161f"/><rect x="795.0" y="277.6" width="16.5" height="16.5" rx="4" fill="#16161f"/><rect x="795.0" y="298.1" width="16.5" height="16.5" rx="4" fill="#16161f"/><rect x="795.0" y="318.6" width="16.5" height="16.5" rx="4" fill="#3b1a66"/><rect x="795.0" y="339.2" width="16.5" height="16.5" rx="4" fill="#3b1a66"/>
  <rect x="815.5" y="216.0" width="16.5" height="16.5" rx="4" fill="#3b1a66"/><rect x="815.5" y="236.5" width="16.5" height="16.5" rx="4" fill="#16161f"/><rect x="815.5" y="257.1" width="16.5" height="16.5" rx="4" fill="#16161f"/><rect x="815.5" y="277.6" width="16.5" height="16.5" rx="4" fill="#16161f"/><rect x="815.5" y="298.1" width="16.5" height="16.5" rx="4" fill="#16161f"/><rect x="815.5" y="318.6" width="16.5" height="16.5" rx="4" fill="#16161f"/><rect x="815.5" y="339.2" width="16.5" height="16.5" rx="4" fill="#16161f"/>
  <rect x="836.1" y="216.0" width="16.5" height="16.5" rx="4" fill="#16161f"/><rect x="836.1" y="236.5" width="16.5" height="16.5" rx="4" fill="#3b1a66"/><rect x="836.1" y="257.1" width="16.5" height="16.5" rx="4" fill="#16161f"/><rect x="836.1" y="277.6" width="16.5" height="16.5" rx="4" fill="#16161f"/><rect x="836.1" y="298.1" width="16.5" height="16.5" rx="4" fill="#16161f"/><rect x="836.1" y="318.6" width="16.5" height="16.5" rx="4" fill="#16161f"/><rect x="836.1" y="339.2" width="16.5" height="16.5" rx="4" fill="#16161f"/>
  <rect x="856.6" y="216.0" width="16.5" height="16.5" rx="4" fill="#16161f"/><rect x="856.6" y="236.5" width="16.5" height="16.5" rx="4" fill="#16161f"/><rect x="856.6" y="257.1" width="16.5" height="16.5" rx="4" fill="#16161f"/><rect x="856.6" y="277.6" width="16.5" height="16.5" rx="4" fill="#3b1a66"/><rect x="856.6" y="298.1" width="16.5" height="16.5" rx="4" fill="#16161f"/><rect x="856.6" y="318.6" width="16.5" height="16.5" rx="4" fill="#3b1a66"/><rect x="856.6" y="339.2" width="16.5" height="16.5" rx="4" fill="#3b1a66"/>
  <rect x="877.1" y="216.0" width="16.5" height="16.5" rx="4" fill="#3b1a66"/><rect x="877.1" y="236.5" width="16.5" height="16.5" rx="4" fill="#3b1a66"/><rect x="877.1" y="257.1" width="16.5" height="16.5" rx="4" fill="#3b1a66"/><rect x="877.1" y="277.6" width="16.5" height="16.5" rx="4" fill="#16161f"/><rect x="877.1" y="298.1" width="16.5" height="16.5" rx="4" fill="#3b1a66"/><rect x="877.1" y="318.6" width="16.5" height="16.5" rx="4" fill="#3b1a66"/><rect x="877.1" y="339.2" width="16.5" height="16.5" rx="4" fill="#16161f"/>
  <rect x="897.7" y="216.0" width="16.5" height="16.5" rx="4" fill="#16161f"/><rect x="897.7" y="236.5" width="16.5" height="16.5" rx="4" fill="#16161f"/><rect x="897.7" y="257.1" width="16.5" height="16.5" rx="4" fill="#16161f"/><rect x="897.7" y="277.6" width="16.5" height="16.5" rx="4" fill="#16161f"/><rect x="897.7" y="298.1" width="16.5" height="16.5" rx="4" fill="#16161f"/><rect x="897.7" y="318.6" width="16.5" height="16.5" rx="4" fill="#3b1a66"/><rect x="897.7" y="339.2" width="16.5" height="16.5" rx="4" fill="#16161f"/>
  <rect x="918.2" y="216.0" width="16.5" height="16.5" rx="4" fill="#16161f"/><rect x="918.2" y="236.5" width="16.5" height="16.5" rx="4" fill="#16161f"/><rect x="918.2" y="257.1" width="16.5" height="16.5" rx="4" fill="#16161f"/><rect x="918.2" y="277.6" width="16.5" height="16.5" rx="4" fill="#16161f"/><rect x="918.2" y="298.1" width="16.5" height="16.5" rx="4" fill="#16161f"/><rect x="918.2" y="318.6" width="16.5" height="16.5" rx="4" fill="#16161f"/><rect x="918.2" y="339.2" width="16.5" height="16.5" rx="4" fill="#16161f"/>
  <rect x="938.7" y="216.0" width="16.5" height="16.5" rx="4" fill="#16161f"/><rect x="938.7" y="236.5" width="16.5" height="16.5" rx="4" fill="#16161f"/><rect x="938.7" y="257.1" width="16.5" height="16.5" rx="4" fill="#16161f"/><rect x="938.7" y="277.6" width="16.5" height="16.5" rx="4" fill="#16161f"/><rect x="938.7" y="298.1" width="16.5" height="16.5" rx="4" fill="#16161f"/><rect x="938.7" y="318.6" width="16.5" height="16.5" rx="4" fill="#16161f"/><rect x="938.7" y="339.2" width="16.5" height="16.5" rx="4" fill="#16161f"/>
  <rect x="959.2" y="216.0" width="16.5" height="16.5" rx="4" fill="#16161f"/><rect x="959.2" y="236.5" width="16.5" height="16.5" rx="4" fill="#16161f"/><rect x="959.2" y="257.1" width="16.5" height="16.5" rx="4" fill="#16161f"/><rect x="959.2" y="277.6" width="16.5" height="16.5" rx="4" fill="#3b1a66"/><rect x="959.2" y="298.1" width="16.5" height="16.5" rx="4" fill="#3b1a66"/><rect x="959.2" y="318.6" width="16.5" height="16.5" rx="4" fill="#16161f"/><rect x="959.2" y="339.2" width="16.5" height="16.5" rx="4" fill="#16161f"/>
  <rect x="979.8" y="216.0" width="16.5" height="16.5" rx="4" fill="#16161f"/><rect x="979.8" y="236.5" width="16.5" height="16.5" rx="4" fill="#3b1a66"/><rect x="979.8" y="257.1" width="16.5" height="16.5" rx="4" fill="#3b1a66"/><rect x="979.8" y="277.6" width="16.5" height="16.5" rx="4" fill="#3b1a66"/><rect x="979.8" y="298.1" width="16.5" height="16.5" rx="4" fill="#3b1a66"/><rect x="979.8" y="318.6" width="16.5" height="16.5" rx="4" fill="#6d28d9"/><rect x="979.8" y="339.2" width="16.5" height="16.5" rx="4" fill="#16161f"/>
  <rect x="1000.3" y="216.0" width="16.5" height="16.5" rx="4" fill="#16161f"/><rect x="1000.3" y="236.5" width="16.5" height="16.5" rx="4" fill="#3b1a66"/><rect x="1000.3" y="257.1" width="16.5" height="16.5" rx="4" fill="#3b1a66"/><rect x="1000.3" y="277.6" width="16.5" height="16.5" rx="4" fill="#3b1a66"/><rect x="1000.3" y="298.1" width="16.5" height="16.5" rx="4" fill="#3b1a66"/><rect x="1000.3" y="318.6" width="16.5" height="16.5" rx="4" fill="#6d28d9"/><rect x="1000.3" y="339.2" width="16.5" height="16.5" rx="4" fill="#c084fc"/>
  <rect x="1020.8" y="216.0" width="16.5" height="16.5" rx="4" fill="#3b1a66"/><rect x="1020.8" y="236.5" width="16.5" height="16.5" rx="4" fill="#3b1a66"/><rect x="1020.8" y="257.1" width="16.5" height="16.5" rx="4" fill="#3b1a66"/><rect x="1020.8" y="277.6" width="16.5" height="16.5" rx="4" fill="#3b1a66"/><rect x="1020.8" y="298.1" width="16.5" height="16.5" rx="4" fill="#16161f"/><rect x="1020.8" y="318.6" width="16.5" height="16.5" rx="4" fill="#16161f"/><rect x="1020.8" y="339.2" width="16.5" height="16.5" rx="4" fill="#16161f"/>
  <rect x="1041.4" y="216.0" width="16.5" height="16.5" rx="4" fill="#3b1a66"/><rect x="1041.4" y="236.5" width="16.5" height="16.5" rx="4" fill="#16161f"/><rect x="1041.4" y="257.1" width="16.5" height="16.5" rx="4" fill="#16161f"/><rect x="1041.4" y="277.6" width="16.5" height="16.5" rx="4" fill="#3b1a66"/><rect x="1041.4" y="298.1" width="16.5" height="16.5" rx="4" fill="#3b1a66"/><rect x="1041.4" y="318.6" width="16.5" height="16.5" rx="4" fill="#16161f"/><rect x="1041.4" y="339.2" width="16.5" height="16.5" rx="4" fill="#16161f"/>
  <rect x="1061.9" y="216.0" width="16.5" height="16.5" rx="4" fill="#16161f"/><rect x="1061.9" y="236.5" width="16.5" height="16.5" rx="4" fill="#16161f"/><rect x="1061.9" y="257.1" width="16.5" height="16.5" rx="4" fill="#16161f"/><rect x="1061.9" y="277.6" width="16.5" height="16.5" rx="4" fill="#16161f"/><rect x="1061.9" y="298.1" width="16.5" height="16.5" rx="4" fill="#16161f"/><rect x="1061.9" y="318.6" width="16.5" height="16.5" rx="4" fill="#16161f"/><rect x="1061.9" y="339.2" width="16.5" height="16.5" rx="4" fill="#16161f"/>
  <rect x="1082.4" y="216.0" width="16.5" height="16.5" rx="4" fill="#16161f"/><rect x="1082.4" y="236.5" width="16.5" height="16.5" rx="4" fill="#16161f"/><rect x="1082.4" y="257.1" width="16.5" height="16.5" rx="4" fill="#3b1a66"/><rect x="1082.4" y="277.6" width="16.5" height="16.5" rx="4" fill="#16161f"/><rect x="1082.4" y="298.1" width="16.5" height="16.5" rx="4" fill="#16161f"/><rect x="1082.4" y="318.6" width="16.5" height="16.5" rx="4" fill="#16161f"/><rect x="1082.4" y="339.2" width="16.5" height="16.5" rx="4" fill="#16161f"/>
  <rect x="1102.9" y="216.0" width="16.5" height="16.5" rx="4" fill="#16161f"/><rect x="1102.9" y="236.5" width="16.5" height="16.5" rx="4" fill="#16161f"/><rect x="1102.9" y="257.1" width="16.5" height="16.5" rx="4" fill="#16161f"/><rect x="1102.9" y="277.6" width="16.5" height="16.5" rx="4" fill="#3b1a66"/><rect x="1102.9" y="298.1" width="16.5" height="16.5" rx="4" fill="#6d28d9"/><rect x="1102.9" y="318.6" width="16.5" height="16.5" rx="4" fill="#6d28d9"/><rect x="1102.9" y="339.2" width="16.5" height="16.5" rx="4" fill="#6d28d9"/>
  <rect x="1123.5" y="216.0" width="16.5" height="16.5" rx="4" fill="#3b1a66"/><rect x="1123.5" y="236.5" width="16.5" height="16.5" rx="4" fill="#3b1a66"/><rect x="1123.5" y="257.1" width="16.5" height="16.5" rx="4" fill="#3b1a66"/><rect x="1123.5" y="277.6" width="16.5" height="16.5" rx="4" fill="#3b1a66"/><rect x="1123.5" y="298.1" width="16.5" height="16.5" rx="4" fill="#3b1a66"/><rect x="1123.5" y="318.6" width="16.5" height="16.5" rx="4" fill="#3b1a66"/>
  <text x="56" y="396" text-anchor="start" font-family="'Segoe UI', -apple-system, BlinkMacSystemFont, 'Helvetica Neue', Arial, sans-serif" font-size="15" font-weight="600" letter-spacing="0.9" fill="#a1a1aa">LANGUAGES / OWNED PUBLIC REPOS</text>
  <g clip-path="url(#bar)"><rect x="56.0" y="420" width="653.6" height="8" fill="#a855f7"/><rect x="712.6" y="420" width="380.5" height="8" fill="#f97316"/><rect x="1096.1" y="420" width="35.9" height="8" fill="#22d3ee"/><rect x="1135.1" y="420" width="4.1" height="8" fill="#e879f9"/><rect x="1142.1" y="420" width="1.0" height="8" fill="#facc15"/><rect x="1143.7" y="420" width="1.0" height="8" fill="#3f3f46"/></g>
  <circle cx="61" cy="455.5" r="5" fill="#a855f7"/>
  <text x="74" y="460" font-family="'Segoe UI', -apple-system, BlinkMacSystemFont, 'Helvetica Neue', Arial, sans-serif" font-size="15" fill="#a1a1aa">Java <tspan fill="#71717a">60.4%</tspan></text>
  <circle cx="191" cy="455.5" r="5" fill="#f97316"/>
  <text x="204" y="460" font-family="'Segoe UI', -apple-system, BlinkMacSystemFont, 'Helvetica Neue', Arial, sans-serif" font-size="15" fill="#a1a1aa">TypeScript <tspan fill="#71717a">35.2%</tspan></text>
  <circle cx="369" cy="455.5" r="5" fill="#22d3ee"/>
  <text x="382" y="460" font-family="'Segoe UI', -apple-system, BlinkMacSystemFont, 'Helvetica Neue', Arial, sans-serif" font-size="15" fill="#a1a1aa">JavaScript <tspan fill="#71717a">3.6%</tspan></text>
  <circle cx="539" cy="455.5" r="5" fill="#e879f9"/>
  <text x="552" y="460" font-family="'Segoe UI', -apple-system, BlinkMacSystemFont, 'Helvetica Neue', Arial, sans-serif" font-size="15" fill="#a1a1aa">CSS <tspan fill="#71717a">0.7%</tspan></text>
  <circle cx="653" cy="455.5" r="5" fill="#facc15"/>
  <text x="666" y="460" font-family="'Segoe UI', -apple-system, BlinkMacSystemFont, 'Helvetica Neue', Arial, sans-serif" font-size="15" fill="#a1a1aa">Dockerfile <tspan fill="#71717a">0.1%</tspan></text>
  <circle cx="823" cy="455.5" r="5" fill="#3f3f46"/>
  <text x="836" y="460" font-family="'Segoe UI', -apple-system, BlinkMacSystemFont, 'Helvetica Neue', Arial, sans-serif" font-size="15" fill="#a1a1aa">Other <tspan fill="#71717a">0.0%</tspan></text>
  
</g>
<rect x="0.5" y="0.5" width="1199" height="503" rx="20" stroke="#1f1f29"/>
</svg>
